<?xml version="1.0" encoding="UTF-8" standalone="no"?>
<!-- Created with Inkscape (http://www.inkscape.org/) -->

<svg
   width="153.38731mm"
   height="96.047623mm"
   viewBox="11 0 153.38731 96.047623"
   version="1.1"
   id="svg1"
   inkscape:version="1.4.2 (1:1.4.2+202505120738+ebf0e940d0)"
   sodipodi:docname="flow_diagram.svg"
   inkscape:export-filename="flow_diagram.png"
   inkscape:export-xdpi="299.9"
   inkscape:export-ydpi="299.9"
   xmlns:inkscape="http://www.inkscape.org/namespaces/inkscape"
   xmlns:sodipodi="http://sodipodi.sourceforge.net/DTD/sodipodi-0.dtd"
   xmlns="http://www.w3.org/2000/svg"
   xmlns:svg="http://www.w3.org/2000/svg">
  <sodipodi:namedview
     id="namedview1"
     pagecolor="#ffffff"
     bordercolor="#666666"
     borderopacity="1.0"
     inkscape:showpageshadow="2"
     inkscape:pageopacity="0.0"
     inkscape:pagecheckerboard="0"
     inkscape:deskcolor="#d1d1d1"
     inkscape:document-units="mm"
     inkscape:zoom="2.4177877"
     inkscape:cx="306.06492"
     inkscape:cy="129.45719"
     inkscape:window-width="1850"
     inkscape:window-height="1059"
     inkscape:window-x="70"
     inkscape:window-y="55"
     inkscape:window-maximized="0"
     inkscape:current-layer="layer1" />
  <defs
     id="defs1">
    <marker
       style="overflow:visible"
       id="marker42"
       refX="0"
       refY="0"
       orient="auto-start-reverse"
       inkscape:stockid="Dart arrow"
       markerWidth="1"
       markerHeight="1"
       viewBox="0 0 1 1"
       inkscape:isstock="true"
       inkscape:collect="always"
       preserveAspectRatio="xMidYMid">
      <path
         style="fill:context-stroke;fill-rule:evenodd;stroke:none"
         d="M 0,0 5,-5 -12.5,0 5,5 Z"
         transform="scale(-0.5)"
         id="path42" />
    </marker>
    <marker
       style="overflow:visible"
       id="marker40"
       refX="0"
       refY="0"
       orient="auto-start-reverse"
       inkscape:stockid="Dart arrow"
       markerWidth="1"
       markerHeight="1"
       viewBox="0 0 1 1"
       inkscape:isstock="true"
       inkscape:collect="always"
       preserveAspectRatio="xMidYMid">
      <path
         style="fill:context-stroke;fill-rule:evenodd;stroke:none"
         d="M 0,0 5,-5 -12.5,0 5,5 Z"
         transform="scale(-0.5)"
         id="path40" />
    </marker>
    <marker
       style="overflow:visible"
       id="marker38"
       refX="0"
       refY="0"
       orient="auto-start-reverse"
       inkscape:stockid="Dart arrow"
       markerWidth="1"
       markerHeight="1"
       viewBox="0 0 1 1"
       inkscape:isstock="true"
       inkscape:collect="always"
       preserveAspectRatio="xMidYMid">
      <path
         style="fill:context-stroke;fill-rule:evenodd;stroke:none"
         d="M 0,0 5,-5 -12.5,0 5,5 Z"
         transform="scale(-0.5)"
         id="path38" />
    </marker>
    <marker
       style="overflow:visible"
       id="marker30"
       refX="0"
       refY="0"
       orient="auto-start-reverse"
       inkscape:stockid="Dart arrow"
       markerWidth="1"
       markerHeight="1"
       viewBox="0 0 1 1"
       inkscape:isstock="true"
       inkscape:collect="always"
       preserveAspectRatio="xMidYMid">
      <path
         style="fill:context-stroke;fill-rule:evenodd;stroke:none"
         d="M 0,0 5,-5 -12.5,0 5,5 Z"
         transform="scale(-0.5)"
         id="path30" />
    </marker>
    <marker
       style="overflow:visible"
       id="DartArrow"
       refX="0"
       refY="0"
       orient="auto-start-reverse"
       inkscape:stockid="Dart arrow"
       markerWidth="1"
       markerHeight="1"
       viewBox="0 0 1 1"
       inkscape:isstock="true"
       inkscape:collect="always"
       preserveAspectRatio="xMidYMid">
      <path
         style="fill:context-stroke;fill-rule:evenodd;stroke:none"
         d="M 0,0 5,-5 -12.5,0 5,5 Z"
         transform="scale(-0.5)"
         id="path6" />
    </marker>
    <g
       id="g8056">
      <symbol
         overflow="visible"
         id="symbol6841">
        <path
           style="stroke:none"
           d=""
           id="path4596" />
      </symbol>
      <symbol
         overflow="visible"
         id="symbol5978">
        <path
           style="stroke:none"
           d="M 3.984375,-4.625 C 3.984375,-4.640625 4,-4.734375 4,-4.734375 4,-4.78125 3.984375,-4.84375 3.890625,-4.84375 3.75,-4.84375 3.171875,-4.78125 3,-4.765625 c -0.046875,0 -0.15625,0.015625 -0.15625,0.15625 0,0.09375 0.109375,0.09375 0.1875,0.09375 0.328125,0 0.328125,0.0625 0.328125,0.109375 0,0.046875 0,0.09375 -0.015625,0.15625 L 2.9375,-2.65625 c -0.140625,-0.234375 -0.375,-0.421875 -0.71875,-0.421875 -0.890625,0 -1.796875,0.984375 -1.796875,1.984375 0,0.6875 0.453125,1.15625 1.0625,1.15625 0.375,0 0.703125,-0.203125 0.984375,-0.484375 C 2.59375,0 3,0.0625 3.1875,0.0625 c 0.25,0 0.421875,-0.140625 0.546875,-0.359375 0.15625,-0.28125 0.25,-0.671875 0.25,-0.703125 0,-0.09375 -0.09375,-0.09375 -0.109375,-0.09375 -0.109375,0 -0.109375,0.03125 -0.15625,0.21875 C 3.625,-0.53125 3.5,-0.125 3.203125,-0.125 3.03125,-0.125 2.96875,-0.28125 2.96875,-0.46875 c 0,-0.125 0.015625,-0.1875 0.046875,-0.28125 z M 2.5,-0.875 C 2.453125,-0.671875 2.296875,-0.53125 2.140625,-0.40625 2.078125,-0.34375 1.796875,-0.125 1.5,-0.125 c -0.265625,0 -0.515625,-0.1875 -0.515625,-0.671875 0,-0.375 0.203125,-1.140625 0.375,-1.421875 0.3125,-0.5625 0.671875,-0.65625 0.859375,-0.65625 0.484375,0 0.625,0.53125 0.625,0.609375 0,0.015625 -0.015625,0.078125 -0.015625,0.09375 z m 0,0"
           id="path5523" />
      </symbol>
      <symbol
         overflow="visible"
         id="symbol6335">
        <path
           style="stroke:none"
           d="m 2.875,-4.265625 c 0.046875,-0.203125 0.0625,-0.21875 0.21875,-0.25 h 0.453125 c 0.640625,0 1.4375,0 1.4375,0.71875 0,0.296875 -0.125,0.734375 -0.453125,0.984375 C 4.25,-2.59375 3.8125,-2.484375 3.328125,-2.484375 H 2.4375 Z M 4.140625,-2.375 c 0.828125,-0.1875 1.5625,-0.6875 1.5625,-1.3125 0,-0.59375 -0.703125,-1.078125 -1.71875,-1.078125 H 1.84375 c -0.125,0 -0.21875,0 -0.21875,0.15625 0,0.09375 0.078125,0.09375 0.21875,0.09375 0.015625,0 0.140625,0 0.265625,0.015625 0.15625,0.015625 0.15625,0.03125 0.15625,0.109375 0,0 0,0.046875 -0.015625,0.140625 L 1.3125,-0.546875 C 1.265625,-0.3125 1.25,-0.25 0.703125,-0.25 0.578125,-0.25 0.5,-0.25 0.5,-0.109375 0.5,-0.03125 0.546875,0 0.609375,0 c 0.125,0 0.296875,-0.015625 0.421875,-0.015625 0.140625,0 0.34375,-0.015625 0.46875,-0.015625 0.140625,0 0.296875,0.015625 0.4375,0.015625 C 2.09375,-0.015625 2.265625,0 2.40625,0 2.453125,0 2.5625,0 2.5625,-0.140625 2.5625,-0.25 2.484375,-0.25 2.328125,-0.25 2.21875,-0.25 2.1875,-0.25 2.0625,-0.265625 1.90625,-0.28125 1.90625,-0.296875 1.90625,-0.375 c 0,0 0,-0.046875 0.03125,-0.140625 L 2.375,-2.28125 h 0.953125 c 0.59375,0 0.859375,0.296875 0.859375,0.625 0,0.09375 -0.0625,0.328125 -0.109375,0.484375 C 4,-0.84375 3.96875,-0.75 3.96875,-0.625 c 0,0.546875 0.515625,0.765625 1.03125,0.765625 0.640625,0 0.921875,-0.6875 0.921875,-0.8125 0,-0.015625 -0.015625,-0.09375 -0.125,-0.09375 -0.09375,0 -0.109375,0.046875 -0.125,0.125 C 5.578125,-0.34375 5.3125,-0.0625 5.03125,-0.0625 c -0.1875,0 -0.328125,-0.0625 -0.328125,-0.453125 0,-0.171875 0.046875,-0.53125 0.078125,-0.71875 0.03125,-0.1875 0.03125,-0.25 0.03125,-0.328125 0,-0.078125 0,-0.3125 -0.203125,-0.515625 C 4.484375,-2.21875 4.296875,-2.3125 4.140625,-2.375 Z m 0,0"
           id="path7454" />
      </symbol>
      <symbol
         overflow="visible"
         id="symbol22">
        <path
           style="stroke:none"
           d="m 1.71875,-2.75 h 0.703125 c 0.140625,0 0.21875,0 0.21875,-0.15625 C 2.640625,-3 2.5625,-3 2.4375,-3 H 1.78125 l 0.25,-1.03125 C 2.046875,-4.0625 2.0625,-4.109375 2.0625,-4.125 c 0,-0.140625 -0.109375,-0.234375 -0.25,-0.234375 -0.171875,0 -0.265625,0.125 -0.328125,0.296875 C 1.4375,-3.875 1.53125,-4.21875 1.21875,-3 H 0.515625 c -0.125,0 -0.21875,0 -0.21875,0.15625 C 0.296875,-2.75 0.375,-2.75 0.5,-2.75 H 1.15625 L 0.75,-1.109375 C 0.703125,-0.9375 0.640625,-0.6875 0.640625,-0.59375 c 0,0.40625 0.359375,0.65625 0.75,0.65625 0.78125,0 1.21875,-0.96875 1.21875,-1.0625 0,-0.09375 -0.09375,-0.09375 -0.109375,-0.09375 -0.09375,0 -0.09375,0.015625 -0.15625,0.140625 -0.1875,0.4375 -0.546875,0.828125 -0.921875,0.828125 -0.15625,0 -0.25,-0.09375 -0.25,-0.34375 0,-0.0625 0.03125,-0.21875 0.046875,-0.28125 z m 0,0"
           id="path6433" />
      </symbol>
      <symbol
         overflow="visible"
         id="symbol6742">
        <path
           style="stroke:none"
           d=""
           id="path7837" />
      </symbol>
      <symbol
         overflow="visible"
         id="symbol1571">
        <path
           style="stroke:none"
           d="m 6.84375,-3.265625 c 0.15625,0 0.34375,0 0.34375,-0.1875 C 7.1875,-3.65625 7,-3.65625 6.859375,-3.65625 h -5.96875 c -0.140625,0 -0.328125,0 -0.328125,0.203125 0,0.1875 0.1875,0.1875 0.328125,0.1875 z m 0.015625,1.9375 c 0.140625,0 0.328125,0 0.328125,-0.203125 0,-0.1875 -0.1875,-0.1875 -0.34375,-0.1875 H 0.890625 c -0.140625,0 -0.328125,0 -0.328125,0.1875 0,0.203125 0.1875,0.203125 0.328125,0.203125 z m 0,0"
           id="path6265" />
      </symbol>
      <symbol
         overflow="visible"
         id="symbol7717">
        <path
           style="stroke:none"
           d=""
           id="path5953" />
      </symbol>
      <symbol
         overflow="visible"
         id="symbol1101">
        <path
           style="stroke:none"
           d="m 3.65625,-3.984375 h 0.859375 c 0.203125,0 0.296875,0 0.296875,-0.203125 0,-0.109375 -0.09375,-0.109375 -0.265625,-0.109375 H 3.71875 L 3.921875,-5.4375 c 0.046875,-0.203125 0.1875,-0.90625 0.25,-1.03125 0.078125,-0.1875 0.25,-0.34375 0.46875,-0.34375 0.03125,0 0.296875,0 0.484375,0.1875 -0.4375,0.03125 -0.546875,0.390625 -0.546875,0.53125 0,0.234375 0.1875,0.359375 0.375,0.359375 C 5.21875,-5.734375 5.5,-5.96875 5.5,-6.34375 c 0,-0.453125 -0.453125,-0.6875 -0.859375,-0.6875 -0.34375,0 -0.96875,0.1875 -1.265625,1.171875 -0.0625,0.203125 -0.09375,0.3125 -0.328125,1.5625 h -0.6875 c -0.203125,0 -0.3125,0 -0.3125,0.1875 0,0.125 0.09375,0.125 0.28125,0.125 h 0.65625 L 2.25,-0.046875 c -0.1875,0.96875 -0.359375,1.875 -0.875,1.875 -0.046875,0 -0.28125,0 -0.484375,-0.1875 C 1.359375,1.609375 1.453125,1.25 1.453125,1.109375 1.453125,0.875 1.265625,0.75 1.078125,0.75 0.8125,0.75 0.53125,0.984375 0.53125,1.359375 c 0,0.4375 0.4375,0.6875 0.84375,0.6875 0.546875,0 0.953125,-0.59375 1.125,-0.96875 0.328125,-0.625 0.546875,-1.828125 0.5625,-1.90625 z m 0,0"
           id="path2975" />
      </symbol>
      <symbol
         overflow="visible"
         id="symbol7995">
        <path
           style="stroke:none"
           d="m 4.671875,-3.703125 c 0,-0.546875 -0.265625,-0.703125 -0.4375,-0.703125 -0.25,0 -0.5,0.265625 -0.5,0.484375 0,0.125 0.046875,0.1875 0.15625,0.296875 0.21875,0.203125 0.34375,0.453125 0.34375,0.8125 0,0.421875 -0.609375,2.703125 -1.765625,2.703125 -0.515625,0 -0.75,-0.34375 -0.75,-0.875 0,-0.546875 0.28125,-1.28125 0.578125,-2.109375 0.078125,-0.171875 0.125,-0.3125 0.125,-0.5 0,-0.4375 -0.3125,-0.8125 -0.8125,-0.8125 -0.9375,0 -1.3125,1.453125 -1.3125,1.53125 0,0.109375 0.09375,0.109375 0.109375,0.109375 0.109375,0 0.109375,-0.03125 0.15625,-0.1875 0.296875,-1 0.71875,-1.234375 1.015625,-1.234375 0.078125,0 0.25,0 0.25,0.3125 0,0.25 -0.109375,0.53125 -0.171875,0.703125 -0.4375,1.15625 -0.5625,1.609375 -0.5625,2.046875 0,1.078125 0.875,1.234375 1.328125,1.234375 1.671875,0 2.25,-3.296875 2.25,-3.8125 z m 0,0"
           id="path7239" />
      </symbol>
      <symbol
         overflow="visible"
         id="symbol93">
        <path
           style="stroke:none"
           d=""
           id="path572" />
      </symbol>
      <symbol
         overflow="visible"
         id="symbol4290">
        <path
           style="stroke:none"
           d="m 6.5625,-2.296875 c 0.171875,0 0.359375,0 0.359375,-0.203125 0,-0.1875 -0.1875,-0.1875 -0.359375,-0.1875 H 1.171875 c -0.171875,0 -0.34375,0 -0.34375,0.1875 0,0.203125 0.171875,0.203125 0.34375,0.203125 z m 0,0"
           id="path6441" />
      </symbol>
    </g>
    <g
       id="g9723">
      <symbol
         overflow="visible"
         id="symbol8489">
        <path
           style="stroke:none"
           d=""
           id="path5102" />
      </symbol>
      <symbol
         overflow="visible"
         id="symbol7287">
        <path
           style="stroke:none"
           d="m 6.015625,-8 c 0.015625,-0.046875 0.03125,-0.109375 0.03125,-0.171875 0,-0.125 -0.125,-0.125 -0.140625,-0.125 -0.015625,0 -0.59375,0.046875 -0.65625,0.0625 -0.203125,0.015625 -0.390625,0.03125 -0.59375,0.046875 -0.3125,0.03125 -0.390625,0.03125 -0.390625,0.25 0,0.125 0.09375,0.125 0.265625,0.125 0.578125,0 0.59375,0.109375 0.59375,0.21875 0,0.078125 -0.015625,0.171875 -0.03125,0.203125 l -0.734375,2.90625 c -0.125,-0.3125 -0.453125,-0.78125 -1.078125,-0.78125 -1.34375,0 -2.796875,1.734375 -2.796875,3.515625 0,1.171875 0.6875,1.875 1.5,1.875 0.65625,0 1.21875,-0.515625 1.546875,-0.90625 0.125,0.703125 0.6875,0.90625 1.046875,0.90625 0.359375,0 0.640625,-0.21875 0.859375,-0.65625 0.1875,-0.40625 0.359375,-1.125 0.359375,-1.171875 0,-0.0625 -0.046875,-0.109375 -0.125,-0.109375 C 5.5625,-1.8125 5.5625,-1.75 5.515625,-1.578125 5.328125,-0.875 5.109375,-0.125 4.609375,-0.125 4.265625,-0.125 4.25,-0.4375 4.25,-0.671875 c 0,-0.046875 0,-0.296875 0.078125,-0.625 z M 3.59375,-1.421875 C 3.53125,-1.21875 3.53125,-1.1875 3.375,-0.96875 3.109375,-0.640625 2.578125,-0.125 2.015625,-0.125 1.53125,-0.125 1.25,-0.5625 1.25,-1.265625 c 0,-0.65625 0.375,-2 0.609375,-2.5 0.40625,-0.84375 0.96875,-1.265625 1.421875,-1.265625 0.796875,0 0.953125,0.984375 0.953125,1.078125 0,0.015625 -0.03125,0.15625 -0.046875,0.1875 z m 0,0"
           id="path4422" />
      </symbol>
      <symbol
         overflow="visible"
         id="symbol2464">
        <path
           style="stroke:none"
           d="M 4.40625,-7.34375 C 4.5,-7.796875 4.546875,-7.8125 5.015625,-7.8125 H 5.875 c 1.03125,0 1.796875,0.3125 1.796875,1.234375 0,0.609375 -0.3125,2.375 -2.71875,2.375 H 3.609375 Z M 6.0625,-4.0625 C 7.546875,-4.390625 8.703125,-5.34375 8.703125,-6.375 8.703125,-7.296875 7.75,-8.15625 6.09375,-8.15625 H 2.859375 c -0.234375,0 -0.34375,0 -0.34375,0.21875 0,0.125 0.078125,0.125 0.3125,0.125 0.703125,0 0.703125,0.09375 0.703125,0.21875 0,0.03125 0,0.09375 -0.046875,0.28125 L 1.875,-0.890625 C 1.765625,-0.46875 1.75,-0.34375 0.921875,-0.34375 c -0.28125,0 -0.359375,0 -0.359375,0.21875 C 0.5625,0 0.6875,0 0.734375,0 0.9375,0 1.1875,-0.03125 1.421875,-0.03125 h 1.40625 c 0.21875,0 0.46875,0.03125 0.6875,0.03125 0.09375,0 0.21875,0 0.21875,-0.234375 0,-0.109375 -0.09375,-0.109375 -0.28125,-0.109375 -0.734375,0 -0.734375,-0.09375 -0.734375,-0.21875 0,-0.015625 0,-0.09375 0.03125,-0.1875 l 0.796875,-3.21875 h 1.4375 c 1.140625,0 1.34375,0.71875 1.34375,1.109375 0,0.1875 -0.109375,0.640625 -0.203125,0.953125 -0.125,0.5625 -0.15625,0.6875 -0.15625,0.921875 0,0.84375 0.6875,1.234375 1.484375,1.234375 0.96875,0 1.390625,-1.1875 1.390625,-1.34375 0,-0.09375 -0.0625,-0.125 -0.125,-0.125 -0.09375,0 -0.125,0.078125 -0.140625,0.171875 C 8.28125,-0.203125 7.796875,0.015625 7.5,0.015625 7.203125,0.015625 7,-0.125 7,-0.65625 c 0,-0.28125 0.140625,-1.375 0.15625,-1.4375 0.0625,-0.4375 0.0625,-0.484375 0.0625,-0.578125 0,-0.875 -0.703125,-1.25 -1.15625,-1.390625 z m 0,0"
           id="path1264" />
      </symbol>
      <symbol
         overflow="visible"
         id="symbol5558">
        <path
           style="stroke:none"
           d="M 2.40625,-4.8125 H 3.5 c 0.234375,0 0.34375,0 0.34375,-0.203125 0,-0.140625 -0.0625,-0.140625 -0.3125,-0.140625 H 2.484375 l 0.4375,-1.734375 C 2.96875,-7.0625 2.96875,-7.09375 2.96875,-7.171875 c 0,-0.1875 -0.140625,-0.296875 -0.296875,-0.296875 -0.109375,0 -0.375,0.03125 -0.46875,0.421875 l -0.46875,1.890625 h -1.125 c -0.234375,0 -0.34375,0 -0.34375,0.234375 0,0.109375 0.078125,0.109375 0.3125,0.109375 h 1.0625 L 0.84375,-1.65625 c -0.09375,0.421875 -0.125,0.546875 -0.125,0.703125 0,0.5625 0.390625,1.078125 1.0625,1.078125 1.203125,0 1.859375,-1.75 1.859375,-1.828125 0,-0.078125 -0.0625,-0.109375 -0.125,-0.109375 -0.03125,0 -0.078125,0 -0.09375,0.046875 C 3.40625,-1.75 3.390625,-1.75 3.3125,-1.546875 c -0.25,0.59375 -0.796875,1.421875 -1.5,1.421875 -0.359375,0 -0.375,-0.296875 -0.375,-0.5625 0,0 0,-0.234375 0.03125,-0.375 z m 0,0"
           id="path2870" />
      </symbol>
      <symbol
         overflow="visible"
         id="symbol9382">
        <path
           style="stroke:none"
           d=""
           id="path8684" />
      </symbol>
      <symbol
         overflow="visible"
         id="symbol5922">
        <path
           style="stroke:none"
           d="m 11.078125,-5.53125 c 0.25,0 0.515625,0 0.515625,-0.28125 C 11.59375,-6.125 11.296875,-6.125 11,-6.125 H 1.375 c -0.296875,0 -0.578125,0 -0.578125,0.3125 0,0.28125 0.25,0.28125 0.515625,0.28125 z M 11,-2.46875 c 0.296875,0 0.59375,0 0.59375,-0.296875 0,-0.296875 -0.265625,-0.296875 -0.515625,-0.296875 H 1.3125 c -0.265625,0 -0.515625,0 -0.515625,0.296875 0,0.296875 0.28125,0.296875 0.578125,0.296875 z m 0,0"
           id="path9802" />
      </symbol>
      <symbol
         overflow="visible"
         id="symbol5806">
        <path
           style="stroke:none"
           d=""
           id="path4431" />
      </symbol>
      <symbol
         overflow="visible"
         id="symbol4368">
        <path
           style="stroke:none"
           d="m 7.671875,-6.921875 c 0.359375,0 0.484375,0 0.484375,-0.328125 0,-0.171875 -0.125,-0.171875 -0.4375,-0.171875 H 6.3125 c 0.328125,-1.765625 0.578125,-3 0.71875,-3.546875 0.09375,-0.40625 0.453125,-0.8125 0.90625,-0.8125 0.359375,0 0.71875,0.15625 0.890625,0.3125 -0.671875,0.0625 -0.875,0.5625 -0.875,0.859375 0,0.34375 0.265625,0.546875 0.59375,0.546875 0.34375,0 0.859375,-0.28125 0.859375,-0.9375 0,-0.71875 -0.734375,-1.125 -1.484375,-1.125 -0.734375,0 -1.46875,0.546875 -1.8125,1.21875 -0.3125,0.609375 -0.484375,1.234375 -0.875,3.484375 h -1.15625 c -0.328125,0 -0.5,0 -0.5,0.3125 0,0.1875 0.109375,0.1875 0.453125,0.1875 H 5.125 c -0.296875,1.59375 -1.015625,5.5 -1.40625,7.328125 -0.296875,1.5 -0.546875,2.765625 -1.40625,2.765625 -0.0625,0 -0.5625,0 -0.859375,-0.328125 0.875,-0.078125 0.875,-0.828125 0.875,-0.84375 0,-0.34375 -0.265625,-0.546875 -0.59375,-0.546875 -0.34375,0 -0.859375,0.28125 -0.859375,0.9375 0,0.75 0.765625,1.125 1.4375,1.125 1.75,0 2.46875,-3.15625 2.65625,-4.015625 0.3125,-1.328125 1.15625,-5.90625 1.25,-6.421875 z m 0,0"
           id="path628" />
      </symbol>
      <symbol
         overflow="visible"
         id="symbol3765">
        <path
           style="stroke:none"
           d="m 7.875,-6.4375 c 0,-1.09375 -0.5625,-1.15625 -0.6875,-1.15625 -0.421875,0 -0.796875,0.40625 -0.796875,0.765625 0,0.203125 0.125,0.3125 0.1875,0.390625 0.171875,0.15625 0.625,0.625 0.625,1.515625 0,0.71875 -1.03125,4.75 -3.109375,4.75 -1.046875,0 -1.25,-0.875 -1.25,-1.515625 0,-0.859375 0.390625,-2.0625 0.859375,-3.3125 0.28125,-0.703125 0.34375,-0.875 0.34375,-1.21875 0,-0.71875 -0.515625,-1.375 -1.359375,-1.375 -1.578125,0 -2.21875,2.5 -2.21875,2.640625 0,0.0625 0.0625,0.15625 0.1875,0.15625 0.15625,0 0.171875,-0.078125 0.234375,-0.3125 C 1.3125,-6.59375 1.984375,-7.25 2.640625,-7.25 c 0.15625,0 0.4375,0 0.4375,0.5625 0,0.453125 -0.1875,0.953125 -0.4375,1.609375 C 1.8125,-2.875 1.8125,-2.34375 1.8125,-1.921875 c 0,0.375 0.046875,1.078125 0.578125,1.5625 0.625,0.53125 1.484375,0.53125 1.640625,0.53125 2.859375,0 3.84375,-5.625 3.84375,-6.609375 z m 0,0"
           id="path1042" />
      </symbol>
      <symbol
         overflow="visible"
         id="symbol7254">
        <path
           style="stroke:none"
           d=""
           id="path9167" />
      </symbol>
      <symbol
         overflow="visible"
         id="symbol7939">
        <path
           style="stroke:none"
           d="m 11.34375,-3.953125 c 0.296875,0 0.609375,0 0.609375,-0.359375 0,-0.34375 -0.3125,-0.34375 -0.609375,-0.34375 h -9.3125 c -0.296875,0 -0.609375,0 -0.609375,0.34375 0,0.359375 0.3125,0.359375 0.609375,0.359375 z m 0,0"
           id="path3125" />
      </symbol>
    </g>
    <g
       id="g1578">
      <symbol
         overflow="visible"
         id="symbol3077">
        <path
           style="stroke:none"
           d=""
           id="path5158" />
      </symbol>
      <symbol
         overflow="visible"
         id="symbol2855">
        <path
           style="stroke:none"
           d="m 6.015625,-8 c 0.015625,-0.046875 0.03125,-0.109375 0.03125,-0.171875 0,-0.125 -0.125,-0.125 -0.140625,-0.125 -0.015625,0 -0.59375,0.046875 -0.65625,0.0625 -0.203125,0.015625 -0.390625,0.03125 -0.59375,0.046875 -0.3125,0.03125 -0.390625,0.03125 -0.390625,0.25 0,0.125 0.09375,0.125 0.265625,0.125 0.578125,0 0.59375,0.109375 0.59375,0.21875 0,0.078125 -0.015625,0.171875 -0.03125,0.203125 l -0.734375,2.90625 c -0.125,-0.3125 -0.453125,-0.78125 -1.078125,-0.78125 -1.34375,0 -2.796875,1.734375 -2.796875,3.515625 0,1.171875 0.6875,1.875 1.5,1.875 0.65625,0 1.21875,-0.515625 1.546875,-0.90625 0.125,0.703125 0.6875,0.90625 1.046875,0.90625 0.359375,0 0.640625,-0.21875 0.859375,-0.65625 0.1875,-0.40625 0.359375,-1.125 0.359375,-1.171875 0,-0.0625 -0.046875,-0.109375 -0.125,-0.109375 C 5.5625,-1.8125 5.5625,-1.75 5.515625,-1.578125 5.328125,-0.875 5.109375,-0.125 4.609375,-0.125 4.265625,-0.125 4.25,-0.4375 4.25,-0.671875 c 0,-0.046875 0,-0.296875 0.078125,-0.625 z M 3.59375,-1.421875 C 3.53125,-1.21875 3.53125,-1.1875 3.375,-0.96875 3.109375,-0.640625 2.578125,-0.125 2.015625,-0.125 1.53125,-0.125 1.25,-0.5625 1.25,-1.265625 c 0,-0.65625 0.375,-2 0.609375,-2.5 0.40625,-0.84375 0.96875,-1.265625 1.421875,-1.265625 0.796875,0 0.953125,0.984375 0.953125,1.078125 0,0.015625 -0.03125,0.15625 -0.046875,0.1875 z m 0,0"
           id="path2347" />
      </symbol>
      <symbol
         overflow="visible"
         id="symbol3514">
        <path
           style="stroke:none"
           d="M 4.40625,-7.34375 C 4.5,-7.796875 4.546875,-7.8125 5.015625,-7.8125 H 5.875 c 1.03125,0 1.796875,0.3125 1.796875,1.234375 0,0.609375 -0.3125,2.375 -2.71875,2.375 H 3.609375 Z M 6.0625,-4.0625 C 7.546875,-4.390625 8.703125,-5.34375 8.703125,-6.375 8.703125,-7.296875 7.75,-8.15625 6.09375,-8.15625 H 2.859375 c -0.234375,0 -0.34375,0 -0.34375,0.21875 0,0.125 0.078125,0.125 0.3125,0.125 0.703125,0 0.703125,0.09375 0.703125,0.21875 0,0.03125 0,0.09375 -0.046875,0.28125 L 1.875,-0.890625 C 1.765625,-0.46875 1.75,-0.34375 0.921875,-0.34375 c -0.28125,0 -0.359375,0 -0.359375,0.21875 C 0.5625,0 0.6875,0 0.734375,0 0.9375,0 1.1875,-0.03125 1.421875,-0.03125 h 1.40625 c 0.21875,0 0.46875,0.03125 0.6875,0.03125 0.09375,0 0.21875,0 0.21875,-0.234375 0,-0.109375 -0.09375,-0.109375 -0.28125,-0.109375 -0.734375,0 -0.734375,-0.09375 -0.734375,-0.21875 0,-0.015625 0,-0.09375 0.03125,-0.1875 l 0.796875,-3.21875 h 1.4375 c 1.140625,0 1.34375,0.71875 1.34375,1.109375 0,0.1875 -0.109375,0.640625 -0.203125,0.953125 -0.125,0.5625 -0.15625,0.6875 -0.15625,0.921875 0,0.84375 0.6875,1.234375 1.484375,1.234375 0.96875,0 1.390625,-1.1875 1.390625,-1.34375 0,-0.09375 -0.0625,-0.125 -0.125,-0.125 -0.09375,0 -0.125,0.078125 -0.140625,0.171875 C 8.28125,-0.203125 7.796875,0.015625 7.5,0.015625 7.203125,0.015625 7,-0.125 7,-0.65625 c 0,-0.28125 0.140625,-1.375 0.15625,-1.4375 0.0625,-0.4375 0.0625,-0.484375 0.0625,-0.578125 0,-0.875 -0.703125,-1.25 -1.15625,-1.390625 z m 0,0"
           id="path3440" />
      </symbol>
      <symbol
         overflow="visible"
         id="symbol1413">
        <path
           style="stroke:none"
           d="M 2.40625,-4.8125 H 3.5 c 0.234375,0 0.34375,0 0.34375,-0.203125 0,-0.140625 -0.0625,-0.140625 -0.3125,-0.140625 H 2.484375 l 0.4375,-1.734375 C 2.96875,-7.0625 2.96875,-7.09375 2.96875,-7.171875 c 0,-0.1875 -0.140625,-0.296875 -0.296875,-0.296875 -0.109375,0 -0.375,0.03125 -0.46875,0.421875 l -0.46875,1.890625 h -1.125 c -0.234375,0 -0.34375,0 -0.34375,0.234375 0,0.109375 0.078125,0.109375 0.3125,0.109375 h 1.0625 L 0.84375,-1.65625 c -0.09375,0.421875 -0.125,0.546875 -0.125,0.703125 0,0.5625 0.390625,1.078125 1.0625,1.078125 1.203125,0 1.859375,-1.75 1.859375,-1.828125 0,-0.078125 -0.0625,-0.109375 -0.125,-0.109375 -0.03125,0 -0.078125,0 -0.09375,0.046875 C 3.40625,-1.75 3.390625,-1.75 3.3125,-1.546875 c -0.25,0.59375 -0.796875,1.421875 -1.5,1.421875 -0.359375,0 -0.375,-0.296875 -0.375,-0.5625 0,0 0,-0.234375 0.03125,-0.375 z m 0,0"
           id="path7095" />
      </symbol>
      <symbol
         overflow="visible"
         id="symbol8066">
        <path
           style="stroke:none"
           d=""
           id="path6011" />
      </symbol>
      <symbol
         overflow="visible"
         id="symbol8377">
        <path
           style="stroke:none"
           d="m 11.078125,-5.53125 c 0.25,0 0.515625,0 0.515625,-0.28125 C 11.59375,-6.125 11.296875,-6.125 11,-6.125 H 1.375 c -0.296875,0 -0.578125,0 -0.578125,0.3125 0,0.28125 0.25,0.28125 0.515625,0.28125 z M 11,-2.46875 c 0.296875,0 0.59375,0 0.59375,-0.296875 0,-0.296875 -0.265625,-0.296875 -0.515625,-0.296875 H 1.3125 c -0.265625,0 -0.515625,0 -0.515625,0.296875 0,0.296875 0.28125,0.296875 0.578125,0.296875 z m 0,0"
           id="path9391" />
      </symbol>
      <symbol
         overflow="visible"
         id="symbol157">
        <path
           style="stroke:none"
           d=""
           id="path2815" />
      </symbol>
      <symbol
         overflow="visible"
         id="symbol8461">
        <path
           style="stroke:none"
           d="m 7.671875,-6.921875 c 0.359375,0 0.484375,0 0.484375,-0.328125 0,-0.171875 -0.125,-0.171875 -0.4375,-0.171875 H 6.3125 c 0.328125,-1.765625 0.578125,-3 0.71875,-3.546875 0.09375,-0.40625 0.453125,-0.8125 0.90625,-0.8125 0.359375,0 0.71875,0.15625 0.890625,0.3125 -0.671875,0.0625 -0.875,0.5625 -0.875,0.859375 0,0.34375 0.265625,0.546875 0.59375,0.546875 0.34375,0 0.859375,-0.28125 0.859375,-0.9375 0,-0.71875 -0.734375,-1.125 -1.484375,-1.125 -0.734375,0 -1.46875,0.546875 -1.8125,1.21875 -0.3125,0.609375 -0.484375,1.234375 -0.875,3.484375 h -1.15625 c -0.328125,0 -0.5,0 -0.5,0.3125 0,0.1875 0.109375,0.1875 0.453125,0.1875 H 5.125 c -0.296875,1.59375 -1.015625,5.5 -1.40625,7.328125 -0.296875,1.5 -0.546875,2.765625 -1.40625,2.765625 -0.0625,0 -0.5625,0 -0.859375,-0.328125 0.875,-0.078125 0.875,-0.828125 0.875,-0.84375 0,-0.34375 -0.265625,-0.546875 -0.59375,-0.546875 -0.34375,0 -0.859375,0.28125 -0.859375,0.9375 0,0.75 0.765625,1.125 1.4375,1.125 1.75,0 2.46875,-3.15625 2.65625,-4.015625 0.3125,-1.328125 1.15625,-5.90625 1.25,-6.421875 z m 0,0"
           id="path3249" />
      </symbol>
      <symbol
         overflow="visible"
         id="symbol6216">
        <path
           style="stroke:none"
           d="m 7.875,-6.4375 c 0,-1.09375 -0.5625,-1.15625 -0.6875,-1.15625 -0.421875,0 -0.796875,0.40625 -0.796875,0.765625 0,0.203125 0.125,0.3125 0.1875,0.390625 0.171875,0.15625 0.625,0.625 0.625,1.515625 0,0.71875 -1.03125,4.75 -3.109375,4.75 -1.046875,0 -1.25,-0.875 -1.25,-1.515625 0,-0.859375 0.390625,-2.0625 0.859375,-3.3125 0.28125,-0.703125 0.34375,-0.875 0.34375,-1.21875 0,-0.71875 -0.515625,-1.375 -1.359375,-1.375 -1.578125,0 -2.21875,2.5 -2.21875,2.640625 0,0.0625 0.0625,0.15625 0.1875,0.15625 0.15625,0 0.171875,-0.078125 0.234375,-0.3125 C 1.3125,-6.59375 1.984375,-7.25 2.640625,-7.25 c 0.15625,0 0.4375,0 0.4375,0.5625 0,0.453125 -0.1875,0.953125 -0.4375,1.609375 C 1.8125,-2.875 1.8125,-2.34375 1.8125,-1.921875 c 0,0.375 0.046875,1.078125 0.578125,1.5625 0.625,0.53125 1.484375,0.53125 1.640625,0.53125 2.859375,0 3.84375,-5.625 3.84375,-6.609375 z m 0,0"
           id="path4373" />
      </symbol>
      <symbol
         overflow="visible"
         id="symbol9201">
        <path
           style="stroke:none"
           d=""
           id="path3299" />
      </symbol>
      <symbol
         overflow="visible"
         id="symbol6384">
        <path
           style="stroke:none"
           d="m 11.34375,-3.953125 c 0.296875,0 0.609375,0 0.609375,-0.359375 0,-0.34375 -0.3125,-0.34375 -0.609375,-0.34375 h -9.3125 c -0.296875,0 -0.609375,0 -0.609375,0.34375 0,0.359375 0.3125,0.359375 0.609375,0.359375 z m 0,0"
           id="path7469" />
      </symbol>
    </g>
    <g
       id="g374">
      <symbol
         overflow="visible"
         id="symbol7268">
        <path
           style="stroke:none"
           d=""
           id="path3610" />
      </symbol>
      <symbol
         overflow="visible"
         id="symbol1284">
        <path
           style="stroke:none"
           d="m 8.65625,-11.515625 c 0.015625,-0.07813 0.0625,-0.171875 0.0625,-0.265625 0,-0.171875 -0.171875,-0.171875 -0.21875,-0.171875 -0.015625,0 -0.859375,0.07813 -0.9375,0.09375 -0.296875,0.01563 -0.546875,0.04687 -0.859375,0.0625 -0.4375,0.03125 -0.5625,0.04687 -0.5625,0.359375 0,0.171875 0.140625,0.171875 0.390625,0.171875 0.84375,0 0.859375,0.15625 0.859375,0.328125 0,0.109375 -0.03125,0.25 -0.0625,0.296875 l -1.046875,4.1875 C 6.09375,-6.90625 5.625,-7.59375 4.734375,-7.59375 c -1.9375,0 -4.046875,2.515625 -4.046875,5.0625 0,1.703125 1,2.703125 2.171875,2.703125 0.953125,0 1.75,-0.734375 2.234375,-1.3125 0.171875,1.015625 0.984375,1.3125 1.5,1.3125 0.515625,0 0.9375,-0.3125 1.234375,-0.921875 C 8.109375,-1.34375 8.34375,-2.390625 8.34375,-2.46875 8.34375,-2.546875 8.28125,-2.625 8.171875,-2.625 8.03125,-2.625 8,-2.53125 7.9375,-2.265625 7.671875,-1.25 7.359375,-0.171875 6.640625,-0.171875 c -0.5,0 -0.53125,-0.453125 -0.53125,-0.796875 0,-0.0625 0,-0.421875 0.125,-0.90625 z M 5.1875,-2.046875 C 5.09375,-1.75 5.09375,-1.71875 4.859375,-1.390625 c -0.375,0.484375 -1.140625,1.21875 -1.953125,1.21875 -0.703125,0 -1.09375,-0.640625 -1.09375,-1.65625 0,-0.9375 0.53125,-2.875 0.859375,-3.59375 C 3.25,-6.625 4.0625,-7.25 4.734375,-7.25 c 1.140625,0 1.359375,1.40625 1.359375,1.546875 0,0.015625 -0.046875,0.25 -0.0625,0.28125 z m 0,0"
           id="path1838" />
      </symbol>
      <symbol
         overflow="visible"
         id="symbol220">
        <path
           style="stroke:none"
           d="m 6.34375,-10.59375 c 0.140625,-0.640625 0.21875,-0.671875 0.890625,-0.671875 H 8.46875 c 1.484375,0 2.578125,0.453125 2.578125,1.796875 0,0.875 -0.4375,3.40625 -3.90625,3.40625 h -1.9375 z m 2.390625,4.734375 c 2.125,-0.453125 3.796875,-1.84375 3.796875,-3.3125 0,-1.34375 -1.359375,-2.59375 -3.75,-2.59375 H 4.109375 c -0.34375,0 -0.5,0 -0.5,0.328125 0,0.171875 0.125,0.171875 0.453125,0.171875 1.03125,0 1.03125,0.140625 1.03125,0.328125 0,0.03125 0,0.140625 -0.0625,0.40625 l -2.328125,9.25 C 2.546875,-0.671875 2.515625,-0.5 1.328125,-0.5 0.9375,-0.5 0.8125,-0.5 0.8125,-0.171875 0.8125,0 1,0 1.046875,0 c 0.3125,0 0.671875,-0.03125 1,-0.03125 h 2.03125 C 4.390625,-0.03125 4.75,0 5.0625,0 5.203125,0 5.390625,0 5.390625,-0.328125 5.390625,-0.5 5.234375,-0.5 4.96875,-0.5 c -1.046875,0 -1.046875,-0.140625 -1.046875,-0.3125 0,-0.015625 0,-0.140625 0.03125,-0.265625 L 5.109375,-5.71875 H 7.1875 c 1.625,0 1.9375,1.03125 1.9375,1.609375 0,0.25 -0.171875,0.921875 -0.296875,1.375 -0.1875,0.78125 -0.234375,0.984375 -0.234375,1.3125 0,1.21875 1,1.78125 2.15625,1.78125 1.390625,0 1.984375,-1.703125 1.984375,-1.9375 0,-0.125 -0.07813,-0.171875 -0.1875,-0.171875 -0.125,0 -0.171875,0.09375 -0.203125,0.234375 -0.40625,1.21875 -1.109375,1.53125 -1.546875,1.53125 -0.4375,0 -0.703125,-0.1875 -0.703125,-0.96875 0,-0.40625 0.203125,-1.96875 0.21875,-2.0625 0.09375,-0.640625 0.09375,-0.703125 0.09375,-0.84375 0,-1.25 -1.015625,-1.78125 -1.671875,-2 z m 0,0"
           id="path368" />
      </symbol>
      <symbol
         overflow="visible"
         id="symbol9285">
        <path
           style="stroke:none"
           d="m 3.46875,-6.921875 h 1.578125 c 0.328125,0 0.5,0 0.5,-0.3125 0,-0.1875 -0.109375,-0.1875 -0.453125,-0.1875 H 3.578125 L 4.21875,-9.9375 c 0.0625,-0.234375 0.0625,-0.265625 0.0625,-0.390625 0,-0.28125 -0.21875,-0.4375 -0.4375,-0.4375 -0.140625,0 -0.53125,0.0625 -0.671875,0.609375 L 2.5,-7.421875 H 0.875 c -0.34375,0 -0.5,0 -0.5,0.328125 0,0.171875 0.125,0.171875 0.453125,0.171875 h 1.53125 L 1.21875,-2.375 c -0.140625,0.59375 -0.1875,0.78125 -0.1875,1 0,0.8125 0.5625,1.546875 1.53125,1.546875 1.75,0 2.671875,-2.515625 2.671875,-2.640625 0,-0.09375 -0.0625,-0.15625 -0.171875,-0.15625 -0.03125,0 -0.109375,0 -0.140625,0.078125 -0.015625,0.015625 -0.03125,0.03125 -0.15625,0.3125 -0.359375,0.859375 -1.15625,2.0625 -2.140625,2.0625 -0.53125,0 -0.5625,-0.4375 -0.5625,-0.8125 0,-0.015625 0,-0.34375 0.0625,-0.546875 z m 0,0"
           id="path9344" />
      </symbol>
      <symbol
         overflow="visible"
         id="symbol6892">
        <path
           style="stroke:none"
           d=""
           id="path2872" />
      </symbol>
      <symbol
         overflow="visible"
         id="symbol8646">
        <path
           style="stroke:none"
           d="m 15.9375,-7.953125 c 0.375,0 0.734375,0 0.734375,-0.421875 0,-0.453125 -0.421875,-0.453125 -0.84375,-0.453125 H 1.984375 c -0.421875,0 -0.84375,0 -0.84375,0.453125 0,0.421875 0.375,0.421875 0.75,0.421875 z m -0.109375,4.40625 c 0.421875,0 0.84375,0 0.84375,-0.4375 0,-0.421875 -0.359375,-0.421875 -0.734375,-0.421875 H 1.890625 c -0.375,0 -0.75,0 -0.75,0.421875 0,0.4375 0.421875,0.4375 0.84375,0.4375 z m 0,0"
           id="path2420" />
      </symbol>
      <symbol
         overflow="visible"
         id="symbol4977">
        <path
           style="stroke:none"
           d=""
           id="path2179" />
      </symbol>
      <symbol
         overflow="visible"
         id="symbol9013">
        <path
           style="stroke:none"
           d="m 11.046875,-9.96875 c 0.5,0 0.703125,0 0.703125,-0.46875 0,-0.25 -0.203125,-0.25 -0.640625,-0.25 H 9.09375 c 0.46875,-2.546875 0.8125,-4.3125 1.015625,-5.09375 0.15625,-0.59375 0.671875,-1.171875 1.3125,-1.171875 0.515625,0 1.046875,0.21875 1.296875,0.453125 -0.96875,0.09375 -1.265625,0.8125 -1.265625,1.234375 0,0.5 0.375,0.796875 0.84375,0.796875 0.484375,0 1.234375,-0.421875 1.234375,-1.359375 0,-1.046875 -1.046875,-1.625 -2.125,-1.625 -1.078125,0 -2.109375,0.796875 -2.609375,1.765625 -0.453125,0.875 -0.6875,1.765625 -1.265625,5 H 5.875 c -0.46875,0 -0.71875,0 -0.71875,0.453125 0,0.265625 0.140625,0.265625 0.640625,0.265625 h 1.59375 C 6.9375,-7.65625 5.921875,-2.0625 5.359375,0.59375 4.9375,2.75 4.5625,4.5625 3.328125,4.5625 c -0.078125,0 -0.796875,0 -1.25,-0.46875 C 3.34375,3.984375 3.34375,2.90625 3.34375,2.875 3.34375,2.375 2.96875,2.078125 2.5,2.078125 2,2.078125 1.265625,2.5 1.265625,3.4375 c 0,1.078125 1.09375,1.625 2.0625,1.625 2.515625,0 3.5625,-4.546875 3.828125,-5.78125 0.453125,-1.90625 1.671875,-8.5 1.796875,-9.25 z m 0,0"
           id="path2217" />
      </symbol>
      <symbol
         overflow="visible"
         id="symbol6437">
        <path
           style="stroke:none"
           d="m 11.328125,-9.265625 c 0,-1.5625 -0.796875,-1.65625 -1,-1.65625 -0.59375,0 -1.140625,0.59375 -1.140625,1.078125 0,0.296875 0.1875,0.46875 0.28125,0.578125 0.25,0.21875 0.890625,0.890625 0.890625,2.171875 0,1.046875 -1.484375,6.84375 -4.46875,6.84375 -1.5,0 -1.796875,-1.265625 -1.796875,-2.171875 0,-1.25 0.5625,-2.984375 1.234375,-4.765625 0.390625,-1.015625 0.5,-1.265625 0.5,-1.765625 0,-1.03125 -0.75,-1.96875 -1.96875,-1.96875 -2.265625,0 -3.1875,3.59375 -3.1875,3.78125 0,0.109375 0.09375,0.234375 0.265625,0.234375 0.234375,0 0.25,-0.109375 0.34375,-0.453125 0.609375,-2.125 1.5625,-3.078125 2.515625,-3.078125 0.21875,0 0.640625,0 0.640625,0.828125 0,0.640625 -0.28125,1.359375 -0.640625,2.296875 -1.1875,3.171875 -1.1875,3.9375 -1.1875,4.53125 0,0.546875 0.0625,1.5625 0.828125,2.265625 C 4.34375,0.25 5.578125,0.25 5.796875,0.25 c 4.109375,0 5.53125,-8.109375 5.53125,-9.515625 z m 0,0"
           id="path2299" />
      </symbol>
      <symbol
         overflow="visible"
         id="symbol4053">
        <path
           style="stroke:none"
           d=""
           id="path5773" />
      </symbol>
      <symbol
         overflow="visible"
         id="symbol3529">
        <path
           style="stroke:none"
           d="m 16.328125,-5.703125 c 0.421875,0 0.875,0 0.875,-0.484375 0,-0.5 -0.453125,-0.5 -0.875,-0.5 H 2.921875 c -0.421875,0 -0.859375,0 -0.859375,0.5 0,0.484375 0.4375,0.484375 0.859375,0.484375 z m 0,0"
           id="path1522" />
      </symbol>
    </g>
    <marker
       style="overflow:visible"
       id="DartArrow-7"
       refX="0"
       refY="0"
       orient="auto-start-reverse"
       inkscape:stockid="Dart arrow"
       markerWidth="1"
       markerHeight="1"
       viewBox="0 0 1 1"
       inkscape:isstock="true"
       inkscape:collect="always"
       preserveAspectRatio="xMidYMid">
      <path
         style="fill:context-stroke;fill-rule:evenodd;stroke:none"
         d="M 0,0 5,-5 -12.5,0 5,5 Z"
         transform="scale(-0.5)"
         id="path6-3" />
    </marker>
    <marker
       style="overflow:visible"
       id="marker38-1"
       refX="0"
       refY="0"
       orient="auto-start-reverse"
       inkscape:stockid="Dart arrow"
       markerWidth="1"
       markerHeight="1"
       viewBox="0 0 1 1"
       inkscape:isstock="true"
       inkscape:collect="always"
       preserveAspectRatio="xMidYMid">
      <path
         style="fill:context-stroke;fill-rule:evenodd;stroke:none"
         d="M 0,0 5,-5 -12.5,0 5,5 Z"
         transform="scale(-0.5)"
         id="path38-9" />
    </marker>
    <marker
       style="overflow:visible"
       id="marker40-0"
       refX="0"
       refY="0"
       orient="auto-start-reverse"
       inkscape:stockid="Dart arrow"
       markerWidth="1"
       markerHeight="1"
       viewBox="0 0 1 1"
       inkscape:isstock="true"
       inkscape:collect="always"
       preserveAspectRatio="xMidYMid">
      <path
         style="fill:context-stroke;fill-rule:evenodd;stroke:none"
         d="M 0,0 5,-5 -12.5,0 5,5 Z"
         transform="scale(-0.5)"
         id="path40-3" />
    </marker>
  </defs>
  <g
     inkscape:label="Layer 1"
     inkscape:groupmode="layer"
     id="layer1"
     transform="translate(-13.569567,-78.212163)">
    <text
       xml:space="preserve"
       style="font-size:4.93889px;line-height:1.25;font-family:sans-serif;letter-spacing:0px;word-spacing:0px;fill:#800080;stroke-width:0.264583"
       x="81.526833"
       y="152.11046"
       id="text4"><tspan
         sodipodi:role="line"
         id="tspan4"
         style="font-size:4.93889px;fill:#800080;stroke-width:0.264583"
         x="81.526833"
         y="152.11046">melting</tspan></text>
    <text
       xml:space="preserve"
       style="font-size:4.93889px;line-height:1.25;font-family:sans-serif;letter-spacing:0px;word-spacing:0px;fill:#800080;stroke-width:0.264583"
       x="113.69983"
       y="152.00105"
       id="text5"><tspan
         sodipodi:role="line"
         id="tspan5"
         style="font-size:4.93889px;fill:#800080;stroke-width:0.264583"
         x="113.69983"
         y="152.00105">calving</tspan></text>
    <ellipse
       style="opacity:1;fill:none;stroke:#0000f9;stroke-width:0.589113"
       id="path3"
       cx="107.05975"
       cy="117.33057"
       rx="45.088074"
       ry="20.082863" />
    <text
       xml:space="preserve"
       style="font-size:4.93889px;line-height:1.25;font-family:sans-serif;letter-spacing:0px;word-spacing:0px;fill:#800080;stroke-width:0.264583"
       x="85.392944"
       y="81.964561"
       id="text3"><tspan
         sodipodi:role="line"
         id="tspan3"
         style="font-size:4.93889px;fill:#800080;stroke-width:0.264583"
         x="85.392944"
         y="81.964561">Terminus position</tspan></text>
    <text
       xml:space="preserve"
       style="font-size:4.23333px;line-height:1.25;font-family:sans-serif;letter-spacing:0px;word-spacing:0px;stroke-width:0.264583"
       x="77.693764"
       y="107.756"
       id="text6"><tspan
         sodipodi:role="line"
         id="tspan6"
         style="stroke-width:0.264583"
         x="77.693764"
         y="107.756">retreat </tspan><tspan
         sodipodi:role="line"
         style="stroke-width:0.264583"
         x="77.693764"
         y="113.04766"
         id="tspan9">rate</tspan></text>
    <text
       xml:space="preserve"
       style="font-size:4.23333px;line-height:1.25;font-family:sans-serif;letter-spacing:0px;word-spacing:0px;stroke-width:0.264583"
       x="103.52267"
       y="107.68108"
       id="text7"><tspan
         sodipodi:role="line"
         id="tspan7"
         style="stroke-width:0.264583"
         x="103.52267"
         y="107.68108">frontal </tspan><tspan
         sodipodi:role="line"
         style="stroke-width:0.264583"
         x="103.52267"
         y="112.97275"
         id="tspan10">ablation</tspan></text>
    <text
       xml:space="preserve"
       style="font-size:4.23333px;line-height:1.25;font-family:sans-serif;letter-spacing:0px;word-spacing:0px;stroke-width:0.264583"
       x="126.94112"
       y="107.68108"
       id="text8"><tspan
         sodipodi:role="line"
         id="tspan8"
         style="stroke-width:0.264583"
         x="126.94112"
         y="107.68108">ice </tspan><tspan
         sodipodi:role="line"
         style="stroke-width:0.264583"
         x="126.94112"
         y="112.97275"
         id="tspan11">velocity</tspan></text>
    <text
       xml:space="preserve"
       style="font-size:4.23333px;line-height:1.25;font-family:sans-serif;letter-spacing:0px;word-spacing:0px;stroke-width:0.264583"
       x="95.205841"
       y="109.97915"
       id="text12"><tspan
         sodipodi:role="line"
         id="tspan12"
         style="stroke-width:0.264583"
         x="95.205841"
         y="109.97915">=</tspan></text>
    <g
       inkscape:label=""
       transform="translate(84.263129,119.71852)"
       id="g13">
      <g
         id="surface1"
         transform="matrix(0.352778,0,0,0.352778,-1.12448,-0.703395)">
        <g
           style="fill:#000000;fill-opacity:1"
           id="g12">
          <g
             id="use11"
             transform="translate(3.188,13.947)">
            <path
               style="stroke:none"
               d="m 8.65625,-11.515625 c 0.015625,-0.07813 0.0625,-0.171875 0.0625,-0.265625 0,-0.171875 -0.171875,-0.171875 -0.21875,-0.171875 -0.015625,0 -0.859375,0.07813 -0.9375,0.09375 -0.296875,0.01563 -0.546875,0.04687 -0.859375,0.0625 -0.4375,0.03125 -0.5625,0.04687 -0.5625,0.359375 0,0.171875 0.140625,0.171875 0.390625,0.171875 0.84375,0 0.859375,0.15625 0.859375,0.328125 0,0.109375 -0.03125,0.25 -0.0625,0.296875 l -1.046875,4.1875 C 6.09375,-6.90625 5.625,-7.59375 4.734375,-7.59375 c -1.9375,0 -4.046875,2.515625 -4.046875,5.0625 0,1.703125 1,2.703125 2.171875,2.703125 0.953125,0 1.75,-0.734375 2.234375,-1.3125 0.171875,1.015625 0.984375,1.3125 1.5,1.3125 0.515625,0 0.9375,-0.3125 1.234375,-0.921875 C 8.109375,-1.34375 8.34375,-2.390625 8.34375,-2.46875 8.34375,-2.546875 8.28125,-2.625 8.171875,-2.625 8.03125,-2.625 8,-2.53125 7.9375,-2.265625 7.671875,-1.25 7.359375,-0.171875 6.640625,-0.171875 c -0.5,0 -0.53125,-0.453125 -0.53125,-0.796875 0,-0.0625 0,-0.421875 0.125,-0.90625 z M 5.1875,-2.046875 C 5.09375,-1.75 5.09375,-1.71875 4.859375,-1.390625 c -0.375,0.484375 -1.140625,1.21875 -1.953125,1.21875 -0.703125,0 -1.09375,-0.640625 -1.09375,-1.65625 0,-0.9375 0.53125,-2.875 0.859375,-3.59375 C 3.25,-6.625 4.0625,-7.25 4.734375,-7.25 c 1.140625,0 1.359375,1.40625 1.359375,1.546875 0,0.015625 -0.046875,0.25 -0.0625,0.28125 z m 0,0"
               id="path18" />
          </g>
          <g
             id="use12"
             transform="translate(11.947196,13.947)">
            <path
               style="stroke:none"
               d="m 6.34375,-10.59375 c 0.140625,-0.640625 0.21875,-0.671875 0.890625,-0.671875 H 8.46875 c 1.484375,0 2.578125,0.453125 2.578125,1.796875 0,0.875 -0.4375,3.40625 -3.90625,3.40625 h -1.9375 z m 2.390625,4.734375 c 2.125,-0.453125 3.796875,-1.84375 3.796875,-3.3125 0,-1.34375 -1.359375,-2.59375 -3.75,-2.59375 H 4.109375 c -0.34375,0 -0.5,0 -0.5,0.328125 0,0.171875 0.125,0.171875 0.453125,0.171875 1.03125,0 1.03125,0.140625 1.03125,0.328125 0,0.03125 0,0.140625 -0.0625,0.40625 l -2.328125,9.25 C 2.546875,-0.671875 2.515625,-0.5 1.328125,-0.5 0.9375,-0.5 0.8125,-0.5 0.8125,-0.171875 0.8125,0 1,0 1.046875,0 c 0.3125,0 0.671875,-0.03125 1,-0.03125 h 2.03125 C 4.390625,-0.03125 4.75,0 5.0625,0 5.203125,0 5.390625,0 5.390625,-0.328125 5.390625,-0.5 5.234375,-0.5 4.96875,-0.5 c -1.046875,0 -1.046875,-0.140625 -1.046875,-0.3125 0,-0.015625 0,-0.140625 0.03125,-0.265625 L 5.109375,-5.71875 H 7.1875 c 1.625,0 1.9375,1.03125 1.9375,1.609375 0,0.25 -0.171875,0.921875 -0.296875,1.375 -0.1875,0.78125 -0.234375,0.984375 -0.234375,1.3125 0,1.21875 1,1.78125 2.15625,1.78125 1.390625,0 1.984375,-1.703125 1.984375,-1.9375 0,-0.125 -0.07813,-0.171875 -0.1875,-0.171875 -0.125,0 -0.171875,0.09375 -0.203125,0.234375 -0.40625,1.21875 -1.109375,1.53125 -1.546875,1.53125 -0.4375,0 -0.703125,-0.1875 -0.703125,-0.96875 0,-0.40625 0.203125,-1.96875 0.21875,-2.0625 0.09375,-0.640625 0.09375,-0.703125 0.09375,-0.84375 0,-1.25 -1.015625,-1.78125 -1.671875,-2 z m 0,0"
               id="path19" />
          </g>
        </g>
        <path
           style="fill:none;stroke:#000000;stroke-width:0.956;stroke-linecap:butt;stroke-linejoin:miter;stroke-miterlimit:10;stroke-opacity:1"
           d="M -5e-4,-0.00171875 H 21.729969"
           transform="matrix(1,0,0,-1,3.188,17.51)"
           id="path12" />
        <g
           style="fill:#000000;fill-opacity:1"
           id="g14">
          <g
             id="use13"
             transform="translate(6.631,32.254002)">
            <path
               style="stroke:none"
               d="m 8.65625,-11.515625 c 0.015625,-0.07813 0.0625,-0.171875 0.0625,-0.265625 0,-0.171875 -0.171875,-0.171875 -0.21875,-0.171875 -0.015625,0 -0.859375,0.07813 -0.9375,0.09375 -0.296875,0.01563 -0.546875,0.04687 -0.859375,0.0625 -0.4375,0.03125 -0.5625,0.04687 -0.5625,0.359375 0,0.171875 0.140625,0.171875 0.390625,0.171875 0.84375,0 0.859375,0.15625 0.859375,0.328125 0,0.109375 -0.03125,0.25 -0.0625,0.296875 l -1.046875,4.1875 C 6.09375,-6.90625 5.625,-7.59375 4.734375,-7.59375 c -1.9375,0 -4.046875,2.515625 -4.046875,5.0625 0,1.703125 1,2.703125 2.171875,2.703125 0.953125,0 1.75,-0.734375 2.234375,-1.3125 0.171875,1.015625 0.984375,1.3125 1.5,1.3125 0.515625,0 0.9375,-0.3125 1.234375,-0.921875 C 8.109375,-1.34375 8.34375,-2.390625 8.34375,-2.46875 8.34375,-2.546875 8.28125,-2.625 8.171875,-2.625 8.03125,-2.625 8,-2.53125 7.9375,-2.265625 7.671875,-1.25 7.359375,-0.171875 6.640625,-0.171875 c -0.5,0 -0.53125,-0.453125 -0.53125,-0.796875 0,-0.0625 0,-0.421875 0.125,-0.90625 z M 5.1875,-2.046875 C 5.09375,-1.75 5.09375,-1.71875 4.859375,-1.390625 c -0.375,0.484375 -1.140625,1.21875 -1.953125,1.21875 -0.703125,0 -1.09375,-0.640625 -1.09375,-1.65625 0,-0.9375 0.53125,-2.875 0.859375,-3.59375 C 3.25,-6.625 4.0625,-7.25 4.734375,-7.25 c 1.140625,0 1.359375,1.40625 1.359375,1.546875 0,0.015625 -0.046875,0.25 -0.0625,0.28125 z m 0,0"
               id="path20" />
          </g>
          <g
             id="use14"
             transform="translate(15.390196,32.254002)">
            <path
               style="stroke:none"
               d="m 3.46875,-6.921875 h 1.578125 c 0.328125,0 0.5,0 0.5,-0.3125 0,-0.1875 -0.109375,-0.1875 -0.453125,-0.1875 H 3.578125 L 4.21875,-9.9375 c 0.0625,-0.234375 0.0625,-0.265625 0.0625,-0.390625 0,-0.28125 -0.21875,-0.4375 -0.4375,-0.4375 -0.140625,0 -0.53125,0.0625 -0.671875,0.609375 L 2.5,-7.421875 H 0.875 c -0.34375,0 -0.5,0 -0.5,0.328125 0,0.171875 0.125,0.171875 0.453125,0.171875 h 1.53125 L 1.21875,-2.375 c -0.140625,0.59375 -0.1875,0.78125 -0.1875,1 0,0.8125 0.5625,1.546875 1.53125,1.546875 1.75,0 2.671875,-2.515625 2.671875,-2.640625 0,-0.09375 -0.0625,-0.15625 -0.171875,-0.15625 -0.03125,0 -0.109375,0 -0.140625,0.078125 -0.015625,0.015625 -0.03125,0.03125 -0.15625,0.3125 -0.359375,0.859375 -1.15625,2.0625 -2.140625,2.0625 -0.53125,0 -0.5625,-0.4375 -0.5625,-0.8125 0,-0.015625 0,-0.34375 0.0625,-0.546875 z m 0,0"
               id="path21" />
          </g>
        </g>
        <g
           style="fill:#000000;fill-opacity:1"
           id="g15">
          <g
             id="use15"
             transform="translate(33,23.707001)">
            <path
               style="stroke:none"
               d="m 15.9375,-7.953125 c 0.375,0 0.734375,0 0.734375,-0.421875 0,-0.453125 -0.421875,-0.453125 -0.84375,-0.453125 H 1.984375 c -0.421875,0 -0.84375,0 -0.84375,0.453125 0,0.421875 0.375,0.421875 0.75,0.421875 z m -0.109375,4.40625 c 0.421875,0 0.84375,0 0.84375,-0.4375 0,-0.421875 -0.359375,-0.421875 -0.734375,-0.421875 H 1.890625 c -0.375,0 -0.75,0 -0.75,0.421875 0,0.4375 0.421875,0.4375 0.84375,0.4375 z m 0,0"
               id="path22" />
          </g>
        </g>
        <g
           style="fill:#000000;fill-opacity:1"
           id="g16">
          <g
             id="use16"
             transform="translate(57.728001,23.707001)">
            <path
               style="stroke:none"
               d="m 11.046875,-9.96875 c 0.5,0 0.703125,0 0.703125,-0.46875 0,-0.25 -0.203125,-0.25 -0.640625,-0.25 H 9.09375 c 0.46875,-2.546875 0.8125,-4.3125 1.015625,-5.09375 0.15625,-0.59375 0.671875,-1.171875 1.3125,-1.171875 0.515625,0 1.046875,0.21875 1.296875,0.453125 -0.96875,0.09375 -1.265625,0.8125 -1.265625,1.234375 0,0.5 0.375,0.796875 0.84375,0.796875 0.484375,0 1.234375,-0.421875 1.234375,-1.359375 0,-1.046875 -1.046875,-1.625 -2.125,-1.625 -1.078125,0 -2.109375,0.796875 -2.609375,1.765625 -0.453125,0.875 -0.6875,1.765625 -1.265625,5 H 5.875 c -0.46875,0 -0.71875,0 -0.71875,0.453125 0,0.265625 0.140625,0.265625 0.640625,0.265625 h 1.59375 C 6.9375,-7.65625 5.921875,-2.0625 5.359375,0.59375 4.9375,2.75 4.5625,4.5625 3.328125,4.5625 c -0.078125,0 -0.796875,0 -1.25,-0.46875 C 3.34375,3.984375 3.34375,2.90625 3.34375,2.875 3.34375,2.375 2.96875,2.078125 2.5,2.078125 2,2.078125 1.265625,2.5 1.265625,3.4375 c 0,1.078125 1.09375,1.625 2.0625,1.625 2.515625,0 3.5625,-4.546875 3.828125,-5.78125 0.453125,-1.90625 1.671875,-8.5 1.796875,-9.25 z m 0,0"
               id="path23" />
          </g>
        </g>
        <g
           style="fill:#000000;fill-opacity:1"
           id="g17">
          <g
             id="use17"
             transform="translate(77.846001,23.707001)">
            <path
               style="stroke:none"
               d="m 16.328125,-5.703125 c 0.421875,0 0.875,0 0.875,-0.484375 0,-0.5 -0.453125,-0.5 -0.875,-0.5 H 2.921875 c -0.421875,0 -0.859375,0 -0.859375,0.5 0,0.484375 0.4375,0.484375 0.859375,0.484375 z m 0,0"
               id="path24" />
          </g>
        </g>
        <g
           style="fill:#000000;fill-opacity:1"
           id="g18">
          <g
             id="use18"
             transform="translate(102.633,23.707001)">
            <path
               style="stroke:none"
               d="m 11.328125,-9.265625 c 0,-1.5625 -0.796875,-1.65625 -1,-1.65625 -0.59375,0 -1.140625,0.59375 -1.140625,1.078125 0,0.296875 0.1875,0.46875 0.28125,0.578125 0.25,0.21875 0.890625,0.890625 0.890625,2.171875 0,1.046875 -1.484375,6.84375 -4.46875,6.84375 -1.5,0 -1.796875,-1.265625 -1.796875,-2.171875 0,-1.25 0.5625,-2.984375 1.234375,-4.765625 0.390625,-1.015625 0.5,-1.265625 0.5,-1.765625 0,-1.03125 -0.75,-1.96875 -1.96875,-1.96875 -2.265625,0 -3.1875,3.59375 -3.1875,3.78125 0,0.109375 0.09375,0.234375 0.265625,0.234375 0.234375,0 0.25,-0.109375 0.34375,-0.453125 0.609375,-2.125 1.5625,-3.078125 2.515625,-3.078125 0.21875,0 0.640625,0 0.640625,0.828125 0,0.640625 -0.28125,1.359375 -0.640625,2.296875 -1.1875,3.171875 -1.1875,3.9375 -1.1875,4.53125 0,0.546875 0.0625,1.5625 0.828125,2.265625 C 4.34375,0.25 5.578125,0.25 5.796875,0.25 c 4.109375,0 5.53125,-8.109375 5.53125,-9.515625 z m 0,0"
               id="path25" />
          </g>
        </g>
      </g>
    </g>
    <text
       xml:space="preserve"
       style="font-size:4.23333px;line-height:1.25;font-family:sans-serif;letter-spacing:0px;word-spacing:0px;stroke-width:0.264583"
       x="122.23553"
       y="109.21313"
       id="text13"><tspan
         sodipodi:role="line"
         id="tspan13"
         style="stroke-width:0.264583"
         x="122.23553"
         y="109.21313">-</tspan></text>
    <path
       style="fill:none;fill-rule:evenodd;stroke:#000000;stroke-width:0.264583px;stroke-linecap:butt;stroke-linejoin:miter;stroke-opacity:1"
       d="m 13.569567,124.86191 v 0"
       id="path13"
       inkscape:connector-type="polyline"
       inkscape:connector-curvature="0" />
    <path
       style="fill:none;fill-rule:evenodd;stroke:#000000;stroke-width:0.264583px;stroke-linecap:butt;stroke-linejoin:miter;stroke-opacity:1"
       d="m 24.184471,94.002084 v 0"
       id="path14"
       inkscape:connector-type="polyline"
       inkscape:connector-curvature="0" />
    <path
       style="fill:none;fill-rule:evenodd;stroke:#000000;stroke-width:0.264583px;stroke-linecap:butt;stroke-linejoin:miter;stroke-opacity:1"
       d="m 90.609691,145.98228 v -0.10943"
       id="path15"
       inkscape:connector-type="polyline"
       inkscape:connector-curvature="0" />
    <path
       style="display:inline;fill:#800080;fill-opacity:1;fill-rule:evenodd;stroke:#800080;stroke-width:0.265;stroke-linecap:butt;stroke-linejoin:miter;stroke-dasharray:none;stroke-opacity:1;marker-end:url(#DartArrow)"
       d="M 89.468453,146.99459 102.81915,132.659"
       id="path16"
       inkscape:connector-type="polyline"
       inkscape:connector-curvature="0" />
    <path
       style="display:inline;fill:#800080;fill-opacity:1;fill-rule:evenodd;stroke:#800080;stroke-width:0.265;stroke-linecap:butt;stroke-linejoin:miter;stroke-dasharray:none;stroke-opacity:1;marker-end:url(#DartArrow-7)"
       d="M 121.63585,147.04553 108.28507,132.70994"
       id="path16-2"
       inkscape:connector-type="polyline"
       inkscape:connector-curvature="0" />
    <circle
       id="path17"
       style="fill:#800080;stroke:#0000f9;stroke-width:0.264583"
       cx="81.855125"
       cy="81.089104"
       r="0.014485238" />
    <circle
       id="path26"
       style="fill:#800080;stroke:#0000f9;stroke-width:0.264583"
       cx="30.531528"
       cy="91.047424"
       r="0.014485238" />
    <path
       style="fill:none;fill-opacity:1;stroke:#800080;stroke-width:0.273136;stroke-linecap:butt;stroke-linejoin:miter;stroke-dasharray:none;stroke-opacity:1;marker-end:;marker-start:url(#marker42)"
       d="M 84.101353,82.249593 C 49.277838,91.569401 45.269359,95.40507 45.151265,105.64572 c -0.120517,10.45066 29.405926,17.6289 29.405926,17.6289"
       id="path27"
       sodipodi:nodetypes="csc" />
    <path
       style="fill:none;stroke:#ff0000;stroke-width:0.265;stroke-linecap:butt;stroke-linejoin:miter;stroke-dasharray:none;stroke-opacity:1;marker-end:url(#marker30)"
       d="m 133.7259,80.760812 c 24.51276,7.550806 19.56978,4.340438 29.7655,13.788432 6.6181,6.132736 2.84524,17.290256 -6.56592,23.856176 -9.41115,6.56592 -27.46743,7.22251 -27.46743,7.22251"
       id="path29"
       sodipodi:nodetypes="cssc" />
    <text
       xml:space="preserve"
       style="font-size:4.23333px;line-height:1.25;font-family:sans-serif;letter-spacing:0px;word-spacing:0px;fill:#ff0000;stroke-width:0.264583"
       x="140.8044"
       y="100.07779"
       id="text31"><tspan
         sodipodi:role="line"
         id="tspan31"
         style="fill:#ff0000;stroke-width:0.264583"
         x="140.8044"
         y="100.07779">Buttressing</tspan></text>
    <text
       xml:space="preserve"
       style="font-size:4.23333px;line-height:1.25;font-family:sans-serif;letter-spacing:0px;word-spacing:0px;fill:#225500;stroke-width:0.264583"
       x="39.942677"
       y="145.54456"
       id="text32"><tspan
         sodipodi:role="line"
         id="tspan32"
         style="fill:#225500;stroke-width:0.264583"
         x="39.942677"
         y="145.54456">Ocean temp</tspan></text>
    <text
       xml:space="preserve"
       style="font-size:4.23333px;line-height:1.25;font-family:sans-serif;letter-spacing:0px;word-spacing:0px;fill:#225500;stroke-width:0.264583"
       x="45.633144"
       y="157.14433"
       id="text33"><tspan
         sodipodi:role="line"
         id="tspan33"
         style="fill:#225500;stroke-width:0.264583"
         x="45.633144"
         y="157.14433">Runoff</tspan></text>
    <text
       xml:space="preserve"
       style="font-size:4.23333px;line-height:1.25;font-family:sans-serif;letter-spacing:0px;word-spacing:0px;fill:#c83737;stroke-width:0.264583"
       x="34.471077"
       y="168.3064"
       id="text34"><tspan
         sodipodi:role="line"
         id="tspan34"
         style="fill:#c83737;stroke-width:0.264583"
         x="34.471077"
         y="168.3064">surface</tspan><tspan
         sodipodi:role="line"
         style="fill:#c83737;stroke-width:0.264583"
         x="34.471077"
         y="173.59805"
         id="tspan35">melt</tspan></text>
    <text
       xml:space="preserve"
       style="font-size:4.23333px;line-height:1.25;font-family:sans-serif;letter-spacing:0px;word-spacing:0px;fill:#c83737;stroke-width:0.264583"
       x="57.670658"
       y="168.08755"
       id="text36"><tspan
         sodipodi:role="line"
         id="tspan36"
         style="fill:#c83737;stroke-width:0.264583"
         x="57.670658"
         y="168.08755">Liquid</tspan><tspan
         sodipodi:role="line"
         style="fill:#c83737;stroke-width:0.264583"
         x="57.670658"
         y="173.37921"
         id="tspan37">precip</tspan></text>
    <path
       style="fill:none;stroke:#225500;stroke-width:0.264583px;stroke-linecap:butt;stroke-linejoin:miter;stroke-opacity:1;marker-end:url(#marker38)"
       d="m 68.723292,144.88796 10.067745,4.70558"
       id="path37" />
    <path
       style="fill:none;stroke:#225500;stroke-width:0.263059px;stroke-linecap:butt;stroke-linejoin:miter;stroke-opacity:1;marker-end:url(#marker38-1)"
       d="m 64.989705,155.50213 13.22391,-3.54135"
       id="path37-8" />
    <path
       style="fill:none;stroke:#c83737;stroke-width:0.264583px;stroke-linecap:butt;stroke-linejoin:miter;stroke-opacity:1;marker-end:url(#marker40)"
       d="M 43.58992,164.00258 49.170951,159.297"
       id="path39" />
    <path
       style="fill:none;stroke:#c83737;stroke-width:0.264583px;stroke-linecap:butt;stroke-linejoin:miter;stroke-opacity:1;marker-end:url(#marker40-0)"
       d="m 62.948148,164.1295 -5.581031,-4.70558"
       id="path39-0" />
    <path
       style="fill:none;stroke:#ff0000;stroke-width:0.264583px;stroke-linecap:butt;stroke-linejoin:miter;stroke-opacity:1;marker-end:url(#marker42)"
       d="m 63.142261,157.91037 c 0,0 32.939028,7.2225 52.308489,6.12819 19.36947,-1.09432 28.89005,-14.88276 25.27879,-20.46379 -3.61125,-5.58103 -12.14695,-15.53934 -12.14695,-15.53934"
       id="path41"
       sodipodi:nodetypes="cssc" />
    <text
       xml:space="preserve"
       style="font-size:4.23333px;line-height:1.25;font-family:sans-serif;letter-spacing:0px;word-spacing:0px;fill:#ff0000;stroke-width:0.264583"
       x="144.99739"
       y="144.55966"
       id="text42"><tspan
         sodipodi:role="line"
         id="tspan42"
         style="fill:#ff0000;stroke-width:0.264583"
         x="144.99739"
         y="144.55966">Basal</tspan><tspan
         sodipodi:role="line"
         style="fill:#ff0000;stroke-width:0.264583"
         x="144.99739"
         y="149.85132"
         id="tspan43">motion</tspan></text>
  </g>
</svg>
